<svg width="41" height="39" xmlns="http://www.w3.org/2000/svg" xmlns:xlink="http://www.w3.org/1999/xlink" xml:space="preserve" overflow="hidden"><g transform="translate(-900 -325)"><path d="M13.9344 22.3438 15.8072 19.0938C15.32 18.8527 14.8586 18.5628 14.43 18.2284L12.3988 21.7506C12.9337 21.8825 13.4497 22.0818 13.9344 22.3438Z" fill="#5c0931" transform="matrix(1.05128 0 0 1 900 325)"/><path d="M21.6166 29.25C21.5614 28.9142 21.5329 28.5746 21.5312 28.2344 21.5317 28.0308 21.5426 27.8274 21.5638 27.625L17.4362 27.625C17.4574 27.8274 17.4683 28.0308 17.4688 28.2344 17.4671 28.5746 17.4386 28.9142 17.3834 29.25Z" fill="#5c0931" transform="matrix(1.05128 0 0 1 900 325)"/><path d="M24.7812 22.5103C25.2471 22.224 25.7465 21.9962 26.2681 21.8319L24.1841 18.2203C23.7495 18.5587 23.2812 18.8514 22.7866 19.0938Z" fill="#5c0931" transform="matrix(1.05128 0 0 1 900 325)"/><path d="M10.7656 23.1562C7.96104 23.1562 5.6875 25.4298 5.6875 28.2344 5.6875 31.039 7.96104 33.3125 10.7656 33.3125 13.5702 33.3125 15.8438 31.039 15.8438 28.2344 15.8438 25.4298 13.5702 23.1562 10.7656 23.1562ZM10.7656 25.1347C11.5531 25.1325 12.1934 25.769 12.1956 26.5566 12.1979 27.3441 11.5613 27.9843 10.7738 27.9866 9.98623 27.9888 9.34598 27.3522 9.34375 26.5647 9.34375 26.562 9.34375 26.5593 9.34375 26.5566 9.34598 25.7722 9.98128 25.1369 10.7656 25.1347ZM13.6094 30.8466 7.92188 30.8466 7.92188 29.7619C7.92728 29.5394 8.03152 29.3309 8.20625 29.1931 8.62786 28.8903 9.0976 28.6609 9.59562 28.5147 9.97742 28.4037 10.3722 28.3437 10.7697 28.3359 11.1676 28.3384 11.5631 28.3986 11.9437 28.5147 12.4476 28.6455 12.9201 28.8763 13.3331 29.1931 13.5079 29.3309 13.6121 29.5394 13.6175 29.7619Z" fill="#5c0931" transform="matrix(1.05128 0 0 1 900 325)"/><path d="M25.5938 11.9844C25.5938 8.50671 22.7745 5.6875 19.2969 5.6875 15.8192 5.6875 13 8.50671 13 11.9844 13 15.462 15.8192 18.2812 19.2969 18.2812 22.7745 18.2812 25.5938 15.462 25.5938 11.9844ZM19.2847 8.125C20.2607 8.125 21.0519 8.91621 21.0519 9.89219 21.0519 10.8682 20.2607 11.6594 19.2847 11.6594 18.3087 11.6594 17.5175 10.8682 17.5175 9.89219 17.5197 8.91711 18.3096 8.12723 19.2847 8.125ZM22.8109 15.21 15.7544 15.21 15.7544 13.8531C15.7596 13.5763 15.8894 13.3165 16.1078 13.1462 16.6283 12.7707 17.2096 12.4876 17.8263 12.3094 18.3003 12.171 18.7909 12.0972 19.2847 12.09 19.7777 12.0908 20.2678 12.1648 20.7391 12.3094 21.3629 12.4717 21.9484 12.7562 22.4616 13.1462 22.6775 13.3181 22.8056 13.5772 22.8109 13.8531Z" fill="#5c0931" transform="matrix(1.05128 0 0 1 900 325)"/><path d="M28.2344 23.1562C25.4298 23.1562 23.1562 25.4298 23.1562 28.2344 23.1562 31.039 25.4298 33.3125 28.2344 33.3125 31.039 33.3125 33.3125 31.039 33.3125 28.2344 33.3125 25.4298 31.039 23.1562 28.2344 23.1562ZM28.2344 25.1347C29.0219 25.1325 29.6621 25.769 29.6644 26.5566 29.6666 27.3441 29.03 27.9843 28.2425 27.9866 27.455 27.9888 26.8147 27.3522 26.8125 26.5647 26.8125 26.562 26.8125 26.5593 26.8125 26.5566 26.8147 25.7722 27.45 25.1369 28.2344 25.1347ZM31.0781 30.8466 25.3906 30.8466 25.3906 29.7619C25.396 29.5394 25.5003 29.3309 25.675 29.1931 26.0966 28.8903 26.5664 28.6609 27.0644 28.5147 27.4462 28.4037 27.8409 28.3437 28.2384 28.3359 28.6364 28.3384 29.0318 28.3986 29.4125 28.5147 29.9164 28.6455 30.3888 28.8763 30.8019 29.1931 30.9766 29.3309 31.0808 29.5394 31.0862 29.7619Z" fill="#5c0931" transform="matrix(1.05128 0 0 1 900 325)"/></g></svg>